<?xml version="1.0" encoding="UTF-8" standalone="no"?>
<!-- Created with Inkscape (http://www.inkscape.org/) -->

<svg
   width="188mm"
   height="90mm"
   viewBox="0 0 188 90"
   version="1.1"
   id="svg1"
   sodipodi:docname="logo w text.svg"
   inkscape:version="1.4 (86a8ad7, 2024-10-11)"
   xmlns:inkscape="http://www.inkscape.org/namespaces/inkscape"
   xmlns:sodipodi="http://sodipodi.sourceforge.net/DTD/sodipodi-0.dtd"
   xmlns="http://www.w3.org/2000/svg"
   xmlns:svg="http://www.w3.org/2000/svg">
  <sodipodi:namedview
     id="namedview1"
     pagecolor="#ffffff"
     bordercolor="#000000"
     borderopacity="0.25"
     inkscape:showpageshadow="2"
     inkscape:pageopacity="0.0"
     inkscape:pagecheckerboard="0"
     inkscape:deskcolor="#d1d1d1"
     inkscape:document-units="mm"
     showguides="true"
     inkscape:zoom="0.71891835"
     inkscape:cx="271.93631"
     inkscape:cy="209.34227"
     inkscape:window-width="1920"
     inkscape:window-height="1009"
     inkscape:window-x="1912"
     inkscape:window-y="-8"
     inkscape:window-maximized="1"
     inkscape:current-layer="g11">
    <sodipodi:guide
       position="-32.386614,59.605915"
       orientation="0,-1"
       id="guide4"
       inkscape:locked="false" />
    <sodipodi:guide
       position="-81.7026,-0.38295165"
       orientation="0,-1"
       id="guide5"
       inkscape:locked="false" />
  </sodipodi:namedview>
  <defs
     id="defs1" />
  <g
     inkscape:label="Layer 1"
     inkscape:groupmode="layer"
     id="layer1">
    <g
       id="g11"
       transform="matrix(0.26458333,0,0,0.26458333,15.557884,46.108448)">
      <path
         id="path6"
         style="fill:#ffffff;stroke-width:1.39098"
         d="m 76.12302,-66.119003 c -36.71934,0 -55.52108,0.0135 -66.00195,0.39062 -5.2402598,0.18855 -8.4103998,0.46515 -10.74999978,0.90235 -2.34346002,0.43792 -3.84531002,1.06739 -5.42188002,1.79687 -9.5567102,4.4219 -16.6901202,11.30785 -20.9296802,20.26953 l -3.58203,7.57031 c -0.11038,0.23411 -0.16757,0.49314 -0.16602,0.75196 l 0.39453,72.66406 c 0.1943,35.74878 0.30374,53.92459 0.74024,63.939453 0.21823,5.00706 0.51335,7.98549 0.97851,10.16407 0.46633,2.18404 1.14376,3.54921 1.89844,4.94336 4.55026,8.4059 13.19369,16.25255 21.6308602,19.54687 3.35186,1.30874 6.53606,2.04282 17.2167898,2.4082 10.67939,0.36534 29.10613,0.42058 63.5918,0.45118 35.19321,0.0312 53.58928,0.0216 64.17188,-0.33985 10.58431,-0.36149 13.6125,-1.14618 17.31445,-2.53125 5.33343,-1.9955 10.09113,-5.27471 14.38867,-9.86914 5.60304,-5.99011 8.80633,-9.11149 10.11328,-20.4668 1.30593,-11.346483 1.09944,-31.136193 0.87305,-72.103513 l -0.39844,-72.33203 c -0.001,-0.30626 -0.0847,-0.61117 -0.24023,-0.875 a 0.69555884,0.69555884 0 0 0 -0.002,0 l -3.70117,-6.25781 h 0.002 c -5.04362,-8.52993 -10.6573,-13.66515 -19.32422,-17.65821 l -6.95508,-3.20508 c -0.22775,-0.1049 -0.47777,-0.16039 -0.72852,-0.16015 z M 27.92771,-7.6932229 c 3.0542,-0.003 4.79023,0.85076 8.15625,4.2168 1.96569,1.96568 2.96601,3.21231002 3.50586,4.49414 0.54036,1.28302 0.7168,2.81165 0.7168,5.50976 0,2.59745 -0.1347,4.1527499 -0.61719,5.4140599 -0.48249,1.26132 -1.33802,2.32241 -2.94141,3.92579 -1.55503,1.55503 -2.63864,2.41794 -3.87109,2.9121 -1.23245,0.49417 -2.69,0.64649 -5.02149,0.64649 -3.4209,0 -6.01589,-0.67021 -8.06054,-1.97656 -2.04579,-1.30707 -3.61681,-3.28269 -4.84766,-6.22852 -3.85503,-9.2263699 2.74667,-18.9026199 12.98047,-18.9140599 z m 97.91406,0.0137 c 2.03423,0.17248 4.21231,0.94342 6.61133,2.40625 7.54934,4.60331002 8.01146,16.5388099 0.72852,22.2675799 -4.82162,3.7927 -13.29214,3.26452 -17.6836,-1.12695 -1.60326,-1.60326 -2.45935,-2.66451 -2.9414,-3.92579 -0.48206,-1.26127 -0.61524,-2.8163999 -0.61524,-5.4140599 0,-2.69815 0.17676,-4.22659 0.7168,-5.50976 0.53955,-1.28202998 1.5384,-2.52865 3.5039,-4.49414 2.58355,-2.58355 5.09269,-3.89081 7.68946,-4.17969 0.64915,-0.0722 1.31216,-0.0809 1.99023,-0.0234 z m -5.30859,61.1835899 c 1.69755,0 2.84954,0.48924 3.75781,1.34571 0.90178,0.85034 1.56034,2.13578 1.85742,3.85937 0.59287,3.43976 -0.38794,8.5241 -3.40234,13.7793 -7.78458,13.57137 -22.41214,23.64374 -38.05274,26.18164 -9.9745,1.618473 -11.46068,1.621393 -19.71093,-0.006 -14.62001,-2.88357 -31.1826,-16.04091 -37.26563,-29.5957 -1.91248,-4.26158 -2.62484,-7.46172 -2.38476,-9.61328 0.24344,-2.18175 1.1754,-3.45443 3.46484,-4.67969 1.48094,-0.79258 2.67834,-1.16749 3.6875,-1.19922 1.02203,-0.0321 1.9073,0.21938 3.04688,0.99219 2.25449,1.52887 5.18564,5.32466 9.13281,11.89648 4.36143,7.26154 11.98075,12.76951 21.30664,15.57617 8.47814,2.55156 11.82866,2.52391 20.95898,-0.1875 9.52808,-2.82953 19.28759,-11.40469 24.1875,-21.07422 1.64409,-3.24445 2.92731,-5.06419 4.17969,-6.0039 1.26594,-0.94989 2.64908,-1.27149 5.23633,-1.27149 z" />
      <path
         style="fill:#1e7bd2;stroke-width:0.427431"
         d="m -5.0962178,160.13965 c -13.1019402,-0.8129 -26.7093102,-7.86046 -35.2145302,-18.23838 -6.18488,-7.54666 -9.7697,-15.42721 -11.64695,-25.60354 -0.52737,-2.85882 -0.53204,-3.41793 -0.62964,-75.408258 -0.0653,-48.1748289 -0.008,-74.24248 0.16955,-77.63386 0.1821,-3.47114 0.47171,-6.11442 0.90459,-8.25632 3.98766,-19.73119 18.77913,-35.34893 38.19021,-40.32358 5.5877802,-1.43203 5.5383802,-1.43044 44.36061,-1.43044 h 35.85042 v -15.697802 -15.6978 l -1.1471,-0.51679 c -3.41009,-1.5363 -7.93275,-5.45447 -10.06787,-8.72223 -1.44375,-2.20963 -2.73961,-5.05447 -3.44388,-7.56049 -0.68947,-2.45337 -0.96004,-7.90744 -0.53099,-10.70365 1.70217,-11.09341 11.01069,-19.9881 21.89942,-20.92582 10.39727,-0.8954 19.5367,4.00862 24.33353,13.05685 2.249448,4.24312 3.034658,7.93203 2.814538,13.22263 -0.20658,4.96509 -1.421968,8.76219 -4.132428,12.91048 -2.13513,3.26776 -6.65777,7.18593 -10.06787,8.72223 l -1.14711,0.51679 v 15.6978 15.697802 h 35.850428 c 38.82223,0 38.77283,-0.002 44.36061,1.43044 17.286,4.43003 30.96865,17.24715 36.54486,34.23312 1.59543,4.85992 2.24576,8.51807 2.55048,14.34678 0.17611,3.36853 0.23749,29.7389607 0.18039,77.50294 l -0.0865,72.397168 -0.56197,3.14201 c -1.07402,6.005 -2.55197,10.52639 -5.09883,15.59848 -5.18608,10.32812 -13.28187,18.29469 -23.75908,23.37985 -6.06167,2.94206 -11.81214,4.44668 -18.63879,4.87686 -4.85772,0.3061 -156.88937778,0.29364 -161.8360478,-0.0133 z M 150.77782,138.10268 c 5.29535,-1.12677 11.97575,-4.11845 15.86095,-7.103 7.94029,-6.09964 13.265,-14.8087 15.07197,-24.65165 0.46158,-2.51432 0.48067,-5.2866 0.48067,-69.778828 0,-64.0067 -0.022,-67.27114 -0.4697,-69.51699 -2.24208,-11.24846 -8.42511,-20.45406 -17.73756,-26.40857 -4.05149,-2.59057 -9.6201,-4.67464 -14.57129,-5.45335 -3.22271,-0.50686 -143.3166778,-0.50686 -146.5393878,0 -14.4235802,2.2685 -26.5108102,12.67436 -30.9273402,26.62524 -2.0213,6.38485 -1.85121,-0.48353 -1.85121,74.75367 0,64.492228 0.0191,67.264508 0.48067,69.778828 2.75746,15.02044 13.44517,26.8653 27.9774502,31.00654 4.6594,1.32778 1.66539002,1.281 78.4899298,1.22634 65.214108,-0.0464 71.909478,-0.0898 73.734848,-0.47823 z"
         id="path13" />
      <path
         id="path12"
         style="fill:#010101;stroke-width:0.427431"
         d="m 125.71189,-8.6830179 c -2.53856,-0.10605 -5.11757,0.450041 -7.41826,1.6813406 -2.30761,1.23501 -3.61669,2.41419 -5.15088,4.63913 -1.77331,2.57173002 -2.54956,5.1676301 -2.54956,8.52524 0,4.2047003 1.36587,7.6237993 4.19918,10.5121193 1.95285,1.99077 5.33335,3.77112 7.88326,4.15159 7.15693,1.06787 13.94479,-3.05532 16.24153,-9.866799 0.79455,-2.3564303 0.84702,-7.0002203 0.10518,-9.3041403 -1.01853,-3.16326 -3.32174,-6.18515 -6.13429,-8.04772 -2.13943,-1.4167996 -4.63761,-2.1847096 -7.17616,-2.2907606 z m -97.372388,0.0234 c -0.61559,-0.0365 -1.25551,-0.0308 -1.94264,0.0133 -4.94402,0.317871 -9.14723,2.8721306 -11.65082,7.0793206 -3.30465,5.55333 -2.6486,12.9074303 1.57281,17.6214993 2.27429,2.5397 5.47787,4.3127 8.6513,4.78856 2.04097,0.30622 2.08406,0.30619 4.30019,8.5e-4 4.37102,-0.60232 8.72001,-3.66236 10.7058,-7.53263 1.3363,-2.604439 1.71774,-4.2135193 1.7139,-7.2279193 -0.004,-3.2843599 -0.85555,-6.04509998 -2.65642,-8.6154 -1.51193,-2.1579 -2.91561,-3.38015 -5.18093,-4.50889 -2.03709,-1.0150196 -3.6664,-1.5092796 -5.51319,-1.6187306 z M 119.28874,52.169942 c -2.27754,0.0661 -4.50454,1.04572 -6.12679,2.92272 -0.55724,0.64476 -1.44882,2.25579 -2.07704,3.75421 -2.16329,5.15983 -4.9193,9.19283 -9.04033,13.22698 -3.095108,3.02987 -6.002358,5.08851 -9.728218,6.88898 -4.50118,2.17513 -8.49509,3.26767 -13.42399,3.67156 -16.20028,1.32751 -31.34297,-8.1067 -37.82094,-23.56295 -1.17423,-2.80168 -2.72966,-4.66881 -4.71844,-5.66345 -1.30033,-0.65034 -1.75745,-0.73632 -3.91449,-0.73632 -2.29477,0 -2.54064,0.0543 -4.07061,0.8991 -2.70091,1.49139 -4.29311,3.9894 -4.58737,7.1987 -0.19912,2.17174 0.4249,4.23087 2.62887,8.67551 5.64848,11.39106 14.15737,20.0135 25.17667,25.51311 5.51051,2.75023 10.24814,4.28402 16.20146,5.245208 2.55382,0.41234 4.10375,0.48149 8.99858,0.40155 7.92863,-0.12948 12.84937,-1.070828 19.38799,-3.709138 7.623258,-3.07595 13.766178,-7.27256 19.565808,-13.36806 4.4873,-4.71624 7.43726,-8.96949 10.13561,-14.61028 2.10617,-4.40285 2.53146,-5.88901 2.39846,-8.38999 -0.13298,-2.50041 -0.85734,-4.1446 -2.55541,-5.7987 -1.82422,-1.777 -4.15228,-2.62483 -6.42982,-2.55874 z" />
      <g
         id="text3"
         style="font-size:131.896px;line-height:0.93;letter-spacing:-7.12953px;fill:#000000;stroke-width:0.891192;fill-opacity:1"
         aria-label="robot.&#10;health">
        <path
           style="font-weight:bold;font-family:'Open Sauce One';-inkscape-font-specification:'Open Sauce One Bold';fill:#000000;fill-opacity:1"
           d="m 239.18509,21.918617 v -73.993654 h 17.80596 v 8.837032 q 4.08878,-5.671528 9.10082,-8.045656 5.14395,-2.374128 12.00254,-2.374128 h 2.11034 v 17.14648 h -4.08878 q -8.44134,0 -13.1896,4.484464 -3.03361,3.033608 -4.48446,7.781864 -1.45086,4.616359 -1.45086,11.870639 v 34.292959 z m 78.20735,1.450856 q -11.07926,0 -19.6525,-4.880152 -8.57324,-4.880152 -13.45339,-13.7171832 -4.74826,-8.8370318 -4.74826,-20.3119838 0,-11.079263 4.74826,-19.784399 4.88015,-8.705136 13.45339,-13.453392 8.57324,-4.880152 19.6525,-4.880152 11.07927,0 19.65251,4.880152 8.70513,4.880152 13.45339,13.585288 4.88015,8.57324 4.88015,19.652503 0,11.474952 -4.74826,20.3119838 -4.74825,8.8370312 -13.45339,13.7171832 -8.57324,4.880152 -19.7844,4.880152 z m 0,-15.2999353 q 8.70514,0 14.11288,-6.5947998 5.40773,-6.5947999 5.40773,-17.0145839 0,-10.024095 -5.40773,-16.355103 -5.40774,-6.462904 -14.11288,-6.462904 -5.67152,0 -10.15599,2.901712 -4.48446,2.901712 -6.99049,8.177552 -2.50602,5.143944 -2.50602,11.738743 0,10.55168 5.40774,17.1464799 5.53963,6.4629038 14.24476,6.4629038 z m 82.95549,15.2999353 q -6.85859,0 -11.73874,-2.374128 -4.88015,-2.374128 -9.23272,-8.441343 v 9.364615 H 361.57051 V -78.718028 h 17.80596 v 36.007607 q 4.22067,-6.067216 9.10082,-8.441344 5.01205,-2.506024 11.87064,-2.506024 9.62841,0 17.01459,4.880152 7.38617,4.880152 11.47495,13.717184 4.08878,8.705136 4.08878,19.916295 0,11.21116 -4.08878,20.0481918 -4.08878,8.7051352 -11.47495,13.5852872 -7.38618,4.880152 -17.01459,4.880152 z M 396.25916,8.0695377 q 8.44134,0 13.58529,-6.4629038 5.14394,-6.5947999 5.14394,-16.7507919 0,-10.155991 -5.14394,-16.618895 -5.14395,-6.5948 -13.58529,-6.5948 -8.44135,0 -13.84908,6.462904 -5.27584,6.462904 -5.27584,16.750791 0,10.287888 5.27584,16.7507919 5.40773,6.4629038 13.84908,6.4629038 z m 77.67955,15.2999353 q -11.07927,0 -19.6525,-4.880152 -8.57324,-4.880152 -13.4534,-13.7171832 -4.74825,-8.8370318 -4.74825,-20.3119838 0,-11.079263 4.74825,-19.784399 4.88016,-8.705136 13.4534,-13.453392 8.57323,-4.880152 19.6525,-4.880152 11.07926,0 19.6525,4.880152 8.70514,4.880152 13.45339,13.585288 4.88016,8.57324 4.88016,19.652503 0,11.474952 -4.74826,20.3119838 -4.74826,8.8370312 -13.45339,13.7171832 -8.57324,4.880152 -19.7844,4.880152 z m 0,-15.2999353 q 8.70513,0 14.11287,-6.5947998 5.40774,-6.5947999 5.40774,-17.0145839 0,-10.024095 -5.40774,-16.355103 -5.40774,-6.462904 -14.11287,-6.462904 -5.67153,0 -10.15599,2.901712 -4.48447,2.901712 -6.99049,8.177552 -2.50602,5.143944 -2.50602,11.738743 0,10.55168 5.40773,17.1464799 5.53963,6.4629038 14.24477,6.4629038 z m 66.46844,13.8490793 q -17.27838,0 -17.27838,-16.2232073 V -37.830269 H 512.1814 v -14.244768 h 10.94737 v -26.642991 h 17.80596 v 26.642991 h 14.24477 v 14.244768 H 540.93473 V 0.28767389 q 0,3.42929591 1.05517,5.14394381 1.18706,1.714648 5.01205,1.714648 h 8.04565 V 21.918617 Z m 27.42715,1.450856 q -4.35257,0 -7.64997,-3.165504 -3.1655,-3.165504 -3.1655,-7.518071 0,-4.2206724 3.1655,-7.2542803 3.2974,-3.1655039 7.64997,-3.1655039 4.22067,0 7.25428,3.1655039 3.03361,3.0336079 3.03361,7.2542803 0,4.484463 -3.03361,7.649967 -3.03361,3.033608 -7.25428,3.033608 z"
           id="path8" />
        <path
           style="font-weight:bold;font-family:'Open Sauce One';-inkscape-font-specification:'Open Sauce One Bold';fill:#000000;fill-opacity:1"
           d="M 239.31699,147.6857 V 47.04906 h 17.80596 v 36.007607 q 4.35256,-6.067216 9.10082,-8.441344 4.74826,-2.506024 10.94737,-2.506024 17.41027,0 23.0818,12.398223 2.11033,4.352568 2.63792,8.837032 0.52758,4.484464 0.52758,11.738746 v 42.6024 h -17.80596 v -42.86619 q 0,-5.671532 -0.92327,-9.100828 -0.79138,-3.561192 -2.63792,-5.671528 -3.1655,-3.2974 -9.36462,-3.2974 -7.64996,0 -11.34305,4.484464 -2.24223,2.63792 -3.2974,6.990488 -0.92327,4.352564 -0.92327,11.738744 v 37.72225 z m 107.22424,1.45086 q -11.21116,0 -19.7844,-4.88015 -8.57324,-4.88015 -13.3215,-13.45339 -4.61636,-8.70514 -4.61636,-19.65251 0,-10.15599 4.08878,-18.99302 4.22067,-8.968927 12.53012,-14.508559 8.44134,-5.539632 20.57577,-5.539632 10.0241,0 18.46544,4.220672 8.44134,4.088776 13.58529,12.793911 5.14394,8.57324 5.14394,21.367148 v 3.82499 h -55.9239 q 0.39569,4.61636 2.76982,8.70513 2.63792,5.14395 6.99048,8.04566 4.48447,2.76982 10.156,2.76982 6.06721,0 10.41978,-3.03361 4.35257,-3.16551 6.19911,-8.04566 h 18.20165 q -3.56119,11.73875 -12.53012,19.12492 -8.96893,7.25428 -22.9499,7.25428 z m 18.46544,-48.14204 q -0.52759,-4.22067 -2.76982,-6.85859 -2.50602,-3.824984 -6.5948,-5.803424 -4.08878,-2.110336 -9.10082,-2.110336 -5.01205,0 -9.10083,1.97844 -3.95688,1.97844 -6.4629,5.93532 -2.37413,2.901712 -2.90171,6.85859 z m 45.4969,48.14204 q -10.81548,0 -17.54217,-5.67153 -6.7267,-5.80342 -6.7267,-16.09131 0,-11.07926 8.44135,-16.88269 6.06721,-4.22067 17.27837,-6.331 l 22.02663,-4.08878 q -0.26379,-6.858592 -3.56119,-10.419784 -3.2974,-3.561192 -9.8922,-3.561192 -5.14394,0 -9.10082,3.033608 -3.82499,3.033608 -4.74826,8.177552 h -17.67406 q 1.84654,-12.266328 10.81547,-18.729231 8.96893,-6.462904 20.83957,-6.462904 6.72669,0 12.53012,1.97844 5.80342,1.846544 9.8922,5.539632 4.08877,3.561192 5.93532,8.309447 1.84654,4.748256 2.24223,9.496512 0.52758,4.74826 0.52758,11.73874 v 38.51363 h -17.80596 v -10.02409 q -2.76981,4.88015 -6.72669,7.38617 -6.19911,4.08878 -16.75079,4.08878 z m 4.35256,-13.98098 q 5.27584,0 9.49652,-2.11033 5.53963,-2.76982 7.64996,-7.38618 2.11034,-4.61636 2.37413,-12.53012 l -17.67406,3.5612 q -7.12239,1.31896 -10.28789,4.22067 -2.37413,2.37413 -2.37413,5.80342 0,4.08878 2.90171,6.33101 3.03361,2.11033 7.91376,2.11033 z m 61.98391,12.53012 q -8.44134,0 -12.79391,-3.82498 -4.35257,-3.95688 -4.35257,-12.39822 V 47.04906 h 17.80596 v 79.1376 q 0,3.69309 1.31896,5.27584 1.45086,1.45085 4.74826,1.45085 h 4.74825 v 14.77235 z m 36.52817,0 q -17.27838,0 -17.27838,-16.2232 V 87.936818 H 485.14246 V 73.692051 h 10.94737 V 47.04906 h 17.80596 v 26.642991 h 14.24477 v 14.244767 h -14.24477 v 38.117942 q 0,3.4293 1.05517,5.14395 1.18706,1.71464 5.01205,1.71464 h 8.04565 v 14.77235 z m 20.30476,0 V 47.04906 h 17.80596 v 36.007607 q 4.35257,-6.067216 9.10083,-8.441344 4.74825,-2.506024 10.94736,-2.506024 17.41028,0 23.0818,12.398223 2.11034,4.352568 2.63792,8.837032 0.52759,4.484464 0.52759,11.738746 v 42.6024 h -17.80596 v -42.86619 q 0,-5.671532 -0.92327,-9.100828 -0.79138,-3.561192 -2.63792,-5.671528 -3.16551,-3.2974 -9.36462,-3.2974 -7.64997,0 -11.34305,4.484464 -2.24224,2.63792 -3.2974,6.990488 -0.92328,4.352564 -0.92328,11.738744 v 37.72225 z"
           id="path9" />
      </g>
      <path
         d="m 615.01526,148.43889 h -3.84 V 131.5322 h -6.21334 v -3.44 h 16.24002 v 3.44 h -6.18668 z m 12.13333,0 h -3.84 V 128.0922 h 6.34667 l 4.21334,15.70668 4.18667,-15.70668 h 6.40001 v 20.34669 h -3.84001 V 130.9722 l -4.85333,17.46669 h -3.76001 l -4.85334,-17.36002 z"
         id="text5"
         style="font-weight:bold;font-size:26.6667px;line-height:0.93;font-family:'Open Sauce One';-inkscape-font-specification:'Open Sauce One Bold';letter-spacing:0px;fill:#1a1a1a"
         aria-label="TM" />
      <path
         style="fill:#ffffff;stroke-width:1.39098"
         d="M -4.4532698,135.19992 C -12.37955,132.10507 -20.86729,124.42836 -25.18808,116.44637 c -2.96342,-5.47446 -3.01819,-6.73213 -3.40679,-78.228883 l -0.39496,-72.66496 3.58084,-7.56928 c 4.06562,-8.59401 10.85521,-15.16244 20.0895502,-19.43517 6.18890002,-2.8636 8.00522,-2.92892 81.4429198,-2.92892 h 75.11284 l 6.95489,3.20428 c 8.41998,3.87928 13.63846,8.65067 18.55455,16.96491 l 3.70111,6.2594 0.39974,72.33088 c 0.45283,81.939353 0.75411,79.322143 -10.51849,91.373483 -4.14308,4.4293 -8.6615,7.53225 -13.72908,9.42828 -7.25095,2.71292 -10.49093,2.82354 -80.87549,2.76109 C 6.7548802,137.88028 1.9946202,137.7175 -4.4532698,135.19992 Z M 84.97274,100.38417 c 16.18602,-2.626403 31.21484,-12.968003 39.28068,-27.029723 6.33977,-11.05256 4.52406,-21.58858 -3.72045,-21.58858 -5.49737,0 -7.59394,1.573 -10.96606,8.22755 -4.6602,9.19647 -14.22961,17.55083 -23.13146,20.19439 -9.04141,2.68501 -11.58797,2.70906 -19.96305,0.18852 -8.97461,-2.70094 -16.21786,-7.979 -20.3179,-14.80533 -7.9704,-13.27027 -11.69706,-15.79797 -18.17781,-12.32958 -5.2473,2.80827 -5.79743,7.73645 -1.8464,16.54051 6.38546,14.2287 23.17466,27.5622 38.5156,30.587973 8.29934,1.63693 10.31797,1.63835 20.32685,0.0143 z M 37.97856,17.098397 c 3.33479,-3.33478 4.06594,-5.23578 4.06594,-10.5714399 0,-5.54376998 -0.69915,-7.20464998 -4.72933,-11.23482 -3.50029,-3.5003 -5.94028,-4.72798 -9.3891,-4.72413 -11.35136,0.0127 -18.8849598,11.02744 -14.58348,21.3223199 2.65968,6.3655 7.21128,9.27401 14.51314,9.27401 4.83983,0 6.8739,-0.81701 10.12283,-4.06594 z m 96.27773,1.26223 c 8.22593,-6.47052 7.74755,-19.8463599 -0.89835,-25.1183199 -6.85139,-4.1777201 -12.86792,-3.5084101 -18.42616,2.04983 -4.03018,4.03017002 -4.72933,5.69105002 -4.72933,11.23482 0,5.3356599 0.73115,7.2366599 4.06594,10.5714399 5.09838,5.09839 14.36692,5.6837 19.9879,1.26223 z"
         id="path5" />
      <text
         xml:space="preserve"
         style="font-size:131.896px;line-height:0.93;text-align:start;letter-spacing:-7.12953px;writing-mode:lr-tb;direction:ltr;text-anchor:start;fill:#000000;fill-opacity:0;stroke-width:0.891192"
         x="430.04938"
         y="-259.05905"
         id="text7"><tspan
           id="tspan6"
           x="430.04938"
           y="-259.05905"
           style="font-style:normal;font-variant:normal;font-weight:bold;font-stretch:normal;font-size:131.896px;line-height:0.93;font-family:'Open Sauce One';-inkscape-font-specification:'Open Sauce One Bold';letter-spacing:-7.12953px;fill:#000000;fill-opacity:0;stroke-width:0.891192"
           sodipodi:role="line">robot<tspan
   style="fill:#1200ff;fill-opacity:0"
   id="tspan8">.</tspan></tspan><tspan
           x="430.04938"
           y="-133.29198"
           id="tspan7"
           style="font-style:normal;font-variant:normal;font-weight:bold;font-stretch:normal;font-size:131.896px;line-height:0.93;font-family:'Open Sauce One';-inkscape-font-specification:'Open Sauce One Bold';letter-spacing:-7.12953px;fill:#000000;fill-opacity:0;stroke-width:0.891192"
           sodipodi:role="line">health</tspan></text>
    </g>
  </g>
</svg>
