<?xml version="1.0" encoding="UTF-8" standalone="no"?>
<!-- Created with Inkscape (http://www.inkscape.org/) -->

<svg
   version="1.1"
   id="svg1"
   width="676"
   height="776"
   viewBox="0 0 676 776"
   sodipodi:docname="logo only.svg"
   inkscape:version="1.4 (86a8ad7, 2024-10-11)"
   xmlns:inkscape="http://www.inkscape.org/namespaces/inkscape"
   xmlns:sodipodi="http://sodipodi.sourceforge.net/DTD/sodipodi-0.dtd"
   xmlns="http://www.w3.org/2000/svg"
   xmlns:svg="http://www.w3.org/2000/svg">
  <defs
     id="defs1" />
  <sodipodi:namedview
     id="namedview1"
     pagecolor="#ffffff"
     bordercolor="#000000"
     borderopacity="0.25"
     inkscape:showpageshadow="2"
     inkscape:pageopacity="0.0"
     inkscape:pagecheckerboard="0"
     inkscape:deskcolor="#d1d1d1"
     inkscape:zoom="1"
     inkscape:cx="443.5"
     inkscape:cy="388.5"
     inkscape:window-width="1920"
     inkscape:window-height="1009"
     inkscape:window-x="1912"
     inkscape:window-y="-8"
     inkscape:window-maximized="1"
     inkscape:current-layer="g1" />
  <g
     inkscape:groupmode="layer"
     inkscape:label="Image"
     id="g1">
    <g
       id="g11"
       transform="translate(4,2)">
      <path
         style="fill:#1e7bd2"
         d="M 118.36818,768.35506 C 87.715403,766.45323 55.880117,749.96505 35.981642,725.68528 21.511756,708.02939 13.124836,689.59238 8.7329067,665.78424 7.499088,659.09585 7.4881661,657.78779 7.2598315,489.36203 7.1070335,376.6541 7.2402204,315.66724 7.6564843,307.73292 8.0825408,299.61196 8.760093,293.42786 9.7728349,288.41675 19.102205,242.25444 53.707748,205.71578 99.121142,194.07729 112.1941,190.72697 112.07853,190.7307 202.9055,190.7307 h 83.87423 v -36.72596 -36.72596 l -2.68373,-1.20907 c -7.97811,-3.59427 -18.55913,-12.76106 -23.55439,-20.406179 -3.37774,-5.169555 -6.40947,-11.82523 -8.05716,-17.688228 -1.61306,-5.739794 -2.24607,-18.499942 -1.24229,-25.041829 3.98234,-25.953724 25.76018,-46.7633727 51.23504,-48.9572372 24.32503,-2.094843 45.70728,9.3784162 56.92976,30.5473002 5.26272,9.927043 7.09978,18.55747 6.58478,30.935143 -0.4833,11.616135 -3.32677,20.49968 -9.66806,30.204851 -4.99526,7.645119 -15.57627,16.811909 -23.55439,20.406179 l -2.68373,1.20907 v 36.72596 36.72596 h 83.87424 c 90.82696,0 90.71139,-0.004 103.78435,3.34659 40.44164,10.36433 72.45302,40.35075 85.49892,80.09047 3.7326,11.37006 5.25407,19.92852 5.967,33.56516 0.41202,7.88088 0.55561,69.5761 0.42202,181.32282 l -0.20249,169.37757 -1.31475,7.35093 c -2.51274,14.04906 -5.9705,24.62712 -11.92903,36.49358 -12.13315,24.16326 -31.07375,42.80155 -55.58581,54.69859 -14.18163,6.88312 -27.63521,10.40326 -43.60657,11.40969 -11.36494,0.71616 -367.05222,0.687 -378.62526,-0.031 z m 364.67676,-51.55682 c 12.3888,-2.63614 28.01801,-9.63536 37.10766,-16.61791 18.5768,-14.27048 31.03427,-34.64585 35.26179,-57.67402 1.07989,-5.8824 1.12457,-12.36832 1.12457,-163.2518 0,-149.74756 -0.0516,-157.38492 -1.09891,-162.63922 -5.24547,-26.31646 -19.71104,-47.85352 -41.4981,-61.78445 -9.47869,-6.0608 -22.50679,-10.93661 -34.0904,-12.75845 -7.53973,-1.18583 -335.29807,-1.18583 -342.83781,0 -33.74482,5.3073 -62.023627,29.65243 -72.35638,62.29136 -4.728958,14.93775 -4.331023,-1.13125 -4.331023,174.89076 0,150.88348 0.04468,157.3694 1.124571,163.2518 6.451235,35.14123 31.45578,62.85299 65.454942,72.54167 10.90094,3.10642 3.89627,2.99698 183.63194,2.8691 152.57236,-0.10855 168.2366,-0.21014 172.50715,-1.11884 z"
         id="path13" />
      <path
         style="fill:#010101"
         d="m 618.79109,756.75194 v -12.86412 h -4.51103 -4.51102 v -2.7566 -2.7566 h 12.0294 12.02939 v 2.7566 2.7566 h -4.51102 -4.51102 v 12.86412 12.86412 h -3.00735 -3.00735 z m 18.64556,-2.78237 v -15.64648 l 4.61681,0.17891 4.61681,0.17891 3.15942,11.94526 c 1.73769,6.56989 3.19924,11.80742 3.2479,11.63896 0.0487,-0.16846 1.48893,-5.54382 3.20059,-11.94525 l 3.11212,-11.63897 4.66139,-0.17891 4.66139,-0.17891 v 15.64648 15.64649 h -2.69488 -2.69488 l -0.1621,-13.30688 -0.1621,-13.30688 -3.60806,13.30688 -3.60806,13.30688 h -2.73962 -2.73963 L 647.1,757.82395 c -1.76206,-6.48566 -3.42203,-12.34343 -3.68881,-13.01727 -0.26988,-0.68166 -0.50197,4.54949 -0.52318,11.79211 l -0.0381,13.01727 h -2.70661 -2.70662 z M 288.88488,628.13127 c -13.92815,-2.24876 -25.01211,-5.83721 -37.9043,-12.27155 -25.78031,-12.86666 -45.6877,-33.04025 -58.90266,-59.69032 -5.15631,-10.39851 -6.61578,-15.21505 -6.14992,-20.29596 0.68843,-7.50837 4.41226,-13.35264 10.7312,-16.84184 3.57946,-1.97651 4.15481,-2.1036 9.52357,-2.1036 5.04654,0 6.11631,0.20123 9.15853,1.72272 4.65286,2.32703 8.29177,6.69454 11.03895,13.24924 15.15561,36.16082 50.58181,58.23164 88.48335,55.12586 11.53146,-0.94493 20.87739,-3.50093 31.40817,-8.58977 8.71688,-4.2123 15.51719,-9.02799 22.7584,-16.11655 9.64139,-9.43813 16.08991,-18.87237 21.15105,-30.9441 1.46976,-3.50565 3.55469,-7.27495 4.8584,-8.7834 7.5907,-8.78273 20.84121,-9.16724 29.37698,-0.85246 3.97273,3.86988 5.66782,7.71592 5.97893,13.56578 0.31118,5.85121 -0.68286,9.32924 -5.61037,19.62999 -6.31295,13.19696 -13.21605,23.14671 -23.71438,34.18064 -13.56857,14.26079 -27.94025,24.08053 -45.77533,31.27691 -15.2975,6.17247 -26.80962,8.3749 -45.35913,8.67782 -11.45175,0.18702 -15.07662,0.0253 -21.05144,-0.93941 z M 188.71044,442.46257 c -7.42443,-1.11329 -14.9191,-5.26192 -20.23993,-11.20371 -9.87625,-11.02884 -11.41244,-28.23349 -3.68102,-41.22585 5.85731,-9.84299 15.6919,-15.81834 27.25874,-16.56201 6.43032,-0.41342 11.0881,0.58949 17.44263,3.75575 5.29985,2.64075 8.58452,5.4988 12.12176,10.54734 4.21325,6.01337 6.205,12.4732 6.21502,20.15715 0.009,7.05238 -0.88352,10.81716 -4.00989,16.91041 -4.64587,9.05473 -14.82022,16.21331 -25.0465,17.62248 -5.18476,0.71445 -5.28583,0.71444 -10.06081,-0.002 z m 228.58825,-0.0385 c -5.96565,-0.89013 -13.87595,-5.05585 -18.44476,-9.71338 -6.6287,-6.75741 -9.82432,-14.7575 -9.82432,-24.59466 0,-7.85533 1.81608,-13.92768 5.96485,-19.94441 3.58931,-5.20538 6.6532,-7.96474 12.05198,-10.85411 10.76522,-5.76143 24.13368,-5.20295 34.1443,1.42643 6.58014,4.35758 11.9686,11.42645 14.35153,18.82709 1.73557,5.39016 1.61268,16.25461 -0.24623,21.76761 -5.37336,15.93589 -21.25327,25.58379 -37.99735,23.08543 z"
         id="path12" />
    </g>
  </g>
</svg>
