<?xml version="1.0" encoding="UTF-8" standalone="no"?>
<!-- Created with Inkscape (http://www.inkscape.org/) -->

<svg
   width="91mm"
   height="44mm"
   viewBox="0 0 91 44"
   version="1.1"
   id="svg1"
   inkscape:version="1.4 (86a8ad7, 2024-10-11)"
   sodipodi:docname="original image logo w text.svg"
   xmlns:inkscape="http://www.inkscape.org/namespaces/inkscape"
   xmlns:sodipodi="http://sodipodi.sourceforge.net/DTD/sodipodi-0.dtd"
   xmlns="http://www.w3.org/2000/svg"
   xmlns:svg="http://www.w3.org/2000/svg">
  <sodipodi:namedview
     id="namedview1"
     pagecolor="#ffffff"
     bordercolor="#000000"
     borderopacity="0.25"
     inkscape:showpageshadow="2"
     inkscape:pageopacity="0.0"
     inkscape:pagecheckerboard="0"
     inkscape:deskcolor="#d1d1d1"
     inkscape:document-units="mm"
     showguides="true"
     inkscape:zoom="1.24"
     inkscape:cx="397.17742"
     inkscape:cy="174.59677"
     inkscape:window-width="1920"
     inkscape:window-height="1009"
     inkscape:window-x="-8"
     inkscape:window-y="-8"
     inkscape:window-maximized="1"
     inkscape:current-layer="g2">
    <sodipodi:guide
       position="-34.566532,31.624328"
       orientation="0,-1"
       id="guide2"
       inkscape:locked="false" />
    <sodipodi:guide
       position="-28.805444,3.0322581"
       orientation="0,-1"
       id="guide3"
       inkscape:locked="false" />
  </sodipodi:namedview>
  <defs
     id="defs1">
    <rect
       x="-157.25806"
       y="158.06452"
       width="1.6129032"
       height="25"
       id="rect4" />
  </defs>
  <g
     inkscape:label="Layer 1"
     inkscape:groupmode="layer"
     id="layer1">
    <g
       inkscape:groupmode="layer"
       inkscape:label="Image"
       id="g2"
       transform="matrix(0.26458333,0,0,0.26458333,2.9992366,117.70006)">
      <g
         id="g4"
         transform="translate(-17.552359,-445.54922)">
        <path
           style="fill:#1e7bd2"
           d="m 49.163637,160.10795 c -2.096869,-0.21443 -5.665719,-1.07972 -7.795506,-1.89006 -0.367529,-0.13984 -0.868749,-0.25425 -1.113822,-0.25425 -0.611369,0 -7.67249,-3.52254 -7.67249,-3.82753 0,-0.13486 -0.16368,-0.2452 -0.363734,-0.2452 -0.635319,0 -5.230713,-3.65072 -7.383438,-5.86563 -3.840076,-3.951 -6.534177,-8.11752 -8.528053,-13.18891 -0.125812,-0.32 -0.370595,-0.9091 -0.543963,-1.3091 -0.173368,-0.4 -0.526549,-1.57818 -0.784846,-2.61818 -0.258298,-1.04 -0.586168,-2.34909 -0.7286,-2.90909 -0.623334,-2.45076 -0.691715,-5.18419 -0.687724,-27.49091 0.0039,-22.069849 0.09746,-25.88341 0.670548,-27.345452 0.125433,-0.32 0.441218,-1.46998 0.701745,-2.555512 0.639234,-2.66348 2.943153,-7.405341 4.97747,-10.244489 2.798603,-3.905804 7.099984,-7.964526 10.488777,-9.897059 2.378883,-1.35661 5.210266,-2.747352 5.603947,-2.752593 0.202171,-0.0027 0.594898,-0.120529 0.872727,-0.261862 3.543403,-1.802541 6.572289,-2.13187 20.868781,-2.269048 l 12.509091,-0.120028 -0.072,-7.452008 c -0.0396,-4.098605 -0.105055,-7.46869 -0.145455,-7.489078 -3.943812,-1.990299 -6.618909,-6.228156 -6.618909,-10.485597 0,-4.197704 2.491855,-8.141069 6.545455,-10.3581952 1.653477,-0.9043737 1.907769,-0.955539 4.825722,-0.9709701 2.863001,-0.015141 3.201569,0.045268 4.8,0.8564378 2.256969,1.1453635 4.742052,3.6334805 5.811087,5.8181815 0.779809,1.593633 0.8541,2.011143 0.8541,4.8 0,2.801847 -0.07151,3.198945 -0.864401,4.800001 -0.89399,1.805201 -3.22436,4.332874 -4.694598,5.092071 -0.46255,0.238851 -0.937178,0.565392 -1.054728,0.725647 -0.11755,0.160255 -0.215732,3.524862 -0.218182,7.476904 l -0.0045,7.185532 12.436364,0.123386 c 13.346878,0.13242 16.970628,0.447058 19.341508,1.679359 0.27783,0.144405 0.76102,0.262555 1.07375,0.262555 0.31272,0 0.64054,0.116408 0.72847,0.258683 0.0879,0.142275 0.49187,0.342008 0.89764,0.44385 1.65646,0.415746 6.28611,2.897734 8.18563,4.388377 2.70927,2.126086 6.05251,5.382691 7.01826,6.836363 0.26572,0.4 0.83283,1.185455 1.26022,1.745455 1.09964,1.440863 3.29103,5.731881 3.87722,7.592091 0.27236,0.86435 0.60185,1.833364 0.73219,2.153364 1.36572,3.353036 1.46726,5.447141 1.46111,30.132924 -0.006,25.95729 0.0233,25.45801 -1.88548,31.68526 -0.26973,0.88 -0.68867,2.05818 -0.93099,2.61818 -0.80004,1.84894 -2.52764,5.37921 -2.70487,5.52727 -0.0958,0.08 -0.81335,1.12728 -1.59466,2.32728 -1.34573,2.06687 -5.96698,6.92287 -8.48699,8.91807 -3.64914,2.88919 -9.49197,5.86907 -13.33664,6.80178 -0.64,0.15526 -2.08,0.5667 -3.20001,0.9143 -2.0202,0.627 -2.24299,0.63245 -28.072722,0.68678 -14.32,0.0301 -26.494546,0.008 -27.054546,-0.0494 z m 54.109093,-12.09577 c 1.80092,-0.51587 2.5029,-0.7508 3.34545,-1.11963 0.32,-0.14008 1.33034,-0.57732 2.2452,-0.97165 3.91311,-1.68668 8.68543,-5.58783 11.15192,-9.11617 1.761,-2.51912 3.74958,-6.71542 4.33362,-9.14477 0.97783,-4.06734 1.06088,-6.61669 0.95093,-29.190116 -0.11366,-23.335084 -0.0834,-22.715018 -1.28619,-26.324388 -0.42449,-1.273785 -2.33473,-4.76359 -3.18474,-5.818182 -2.00122,-2.482889 -4.92914,-5.082163 -7.29412,-6.475393 -2.4771,-1.459281 -3.82237,-1.955895 -8.51662,-3.143948 -0.56,-0.141728 -14.126782,-0.260811 -30.148409,-0.264628 -31.466204,-0.0075 -29.036103,-0.114438 -34.142498,1.502509 -5.895133,1.866704 -11.397946,6.814784 -14.173957,12.745096 -2.086353,4.457017 -1.971497,2.719861 -1.971497,29.81818 0,26.19707 -0.0019,26.15864 1.489009,29.4625 0.381045,0.84437 0.692809,1.59853 0.692809,1.6759 0,0.51596 1.547916,3.26917 2.957932,5.26115 1.898229,2.68168 4.959342,5.54056 7.951159,7.42585 1.798831,1.13353 2.821677,1.63626 5.309091,2.60943 0.36,0.14084 0.949091,0.37329 1.309091,0.51653 0.36,0.14325 1.374545,0.40351 2.254545,0.57835 0.88,0.17484 1.861819,0.37205 2.181819,0.43825 0.32,0.0662 12.363636,0.0918 26.763636,0.0569 22.830038,-0.0553 26.38665,-0.12213 27.78182,-0.52178 z"
           id="path6" />
        <path
           id="path5"
           style="fill:#141819"
           d="m 54.034606,109.67313 c -2.254442,0 -3.870471,1.30723 -4.400391,3.5586 -0.626386,2.6612 3.554051,8.9584 8.31836,12.52734 2.632442,1.97197 7.788718,4.27734 9.566406,4.27734 0.445509,0 0.891354,0.13102 0.990234,0.29102 0.09889,0.16 0.794365,0.30532 1.544922,0.32422 0.750558,0.0189 1.756328,0.14319 2.236328,0.27539 0.48,0.13217 1.985703,0.18082 3.345703,0.10742 8.979377,-0.48473 14.80497,-3.06522 20.22461,-8.95508 1.196518,-1.30033 2.507349,-3.02013 2.914062,-3.82226 0.406713,-0.80212 0.845945,-1.65453 0.97461,-1.89453 1.08156,-2.01745 1.1224,-2.34576 0.47461,-3.81836 -0.594037,-1.35042 -1.016192,-1.83081 -2.09961,-2.39063 -2.13884,-1.10518 -4.641121,-0.23184 -5.710938,1.99414 -1.55475,3.23499 -2.084676,4.11177 -3.0625,5.06641 -2.341223,2.28571 -5.480983,4.04961 -8.623047,4.8457 -2.687093,0.68097 -9.118484,0.68833 -11.636719,0.0117 -5.24577,-1.40904 -10.397528,-5.74639 -11.296875,-9.50977 -0.365426,-1.52915 -2.136148,-2.88867 -3.759765,-2.88867 z" />
      </g>
      <path
         id="path11"
         style="fill:#ffffff;stroke-width:0.214487"
         d="m 39.906071,-388.90343 c -13.23422,0.0391 -13.2182,0.26406 -16.27539,1.28516 -6.2936,2.10206 -11.35499,6.54086 -14.4355399,12.6582 -1.32026,2.62177 -1.64428,3.8913 -1.86719,7.33203 -0.26507,4.08945 -0.26627,40.4401 -0.002,45.20508 0.21701,3.90837 0.39854,4.7237 1.7832,7.97461 3.1409499,7.37435 8.6348599,12.653 16.3671899,15.72461 2.45811,0.97647 4.17743,1.33247 7.26953,1.50586 3.72596,0.20894 48.83568,0.006 51.15429,-0.23047 2.33175,-0.23743 4.599153,-0.98388 7.828131,-2.57617 2.99726,-1.47802 5.26076,-3.11391 7.89062,-5.70704 2.198988,-2.16827 3.813928,-4.50045 5.298828,-7.64843 1.28783,-2.73021 2.01289,-5.14583 2.39649,-7.99219 0.36172,-2.68041 0.35968,-43.60398 -0.002,-47.39844 -0.55304,-5.80596 -3.90118,-11.27875 -9.457028,-15.45507 -2.38743,-1.79463 -4.64167,-2.89161 -7.949218,-3.86719 l -2.67968,-0.78906 -29.064463,-0.0215 c -7.96031,-0.006 -13.84445,-0.013 -18.25586,0 z m -4.2207,21.33008 c 0.90817,-0.008 1.45024,0.54409 1.47852,1.32031 0.53878,0.13657 0.94276,0.57396 1.31445,1.48438 1.50928,-0.40916 2.50439,0.21503 2.70898,1.10351 0.0397,1.1e-4 0.0794,-2.5e-4 0.11914,0 0.6299,0.004 1.25808,0.0275 1.88477,0.0918 0.21533,0.0221 0.41306,0.0583 0.60156,0.10156 0.0438,-0.004 0.087,-0.0137 0.13086,-0.0176 0.0784,-0.007 0.15573,-0.007 0.23438,-0.01 0.11722,-0.004 0.23196,-0.005 0.34179,-0.002 2.62785,0.0628 3.13249,1.98956 1.57422,3.09571 0.0657,0.0536 0.12899,0.10329 0.19922,0.16601 0.6259,0.55902 1.04859,1.292 1.26172,2.09766 0.0619,0.23391 0.0914,0.47522 0.13672,0.71289 0.0309,0.61132 0.0646,0.79008 -0.0137,1.41211 -0.13634,1.08324 -0.55883,2.10041 -1.08008,3.05078 -0.47666,0.73694 -0.57905,0.96106 -1.1836,1.62305 -1.04191,1.14098 -2.32228,2.00521 -3.70703,2.66992 -0.41428,0.45706 -1.14425,0.77575 -2.16601,0.7832 -0.30878,0.088 -0.64015,0.17174 -1.09961,0.26563 -1.05598,0.21578 -2.12409,0.33608 -3.20313,0.33008 -1.03946,-0.006 -1.88869,-0.15978 -2.91211,-0.30469 -0.46308,-0.0917 -0.92813,-0.17164 -1.38867,-0.27539 -1.7988,-0.40521 -3.62204,-0.98723 -5.15039,-2.05274 -0.2835,-0.19764 -0.51937,-0.45582 -0.7793,-0.68359 -0.26758,-0.3038 -0.56393,-0.58519 -0.80273,-0.91211 -0.55597,-0.76111 -0.90196,-1.93087 -0.97266,-2.86719 -0.019,-0.25107 -0.0105,-0.50217 -0.0156,-0.7539 0.0556,-0.51526 0.06,-0.70473 0.18555,-1.22461 0.18958,-0.78512 0.54848,-1.51593 1,-2.18164 0.13781,-0.17437 0.26786,-0.35605 0.41406,-0.52344 0.58174,-0.66607 1.28452,-1.21104 2.0332,-1.67969 -1.41357,-1.47686 -0.0198,-0.92408 0.43164,-0.25195 0.11732,-0.0678 0.23309,-0.14036 0.35156,-0.20508 0.19812,-0.10134 0.32693,-0.16759 0.47266,-0.24219 0.17196,-0.21143 0.34221,-0.42427 0.51758,-0.63281 0.51349,-0.61062 0.80987,-0.94722 1.36133,-1.5332 0.25272,-0.26855 0.51131,-0.53171 0.76758,-0.79688 0.65405,-0.61703 1.30867,-1.22895 2.00976,-1.79297 0.27739,-0.22315 0.5188,-0.40901 0.81445,-0.59765 0.0938,-0.0599 0.19298,-0.11179 0.28907,-0.16797 0.7088,-0.41446 1.33105,-0.59518 1.83984,-0.59961 z m 44.08594,3.125 c 0.41389,-0.0183 0.81756,0.0797 1.21094,0.19531 0.2307,0.0672 0.45096,0.16491 0.67578,0.24805 0.18009,0.0742 0.36913,0.11506 0.55468,0.17383 0.18785,0.078 0.36362,0.17388 0.53321,0.27734 0.95071,0.22103 1.49884,0.78843 1.61328,1.41797 0.0161,0.0171 0.0328,0.0337 0.0488,0.0508 0.3573,0.36918 0.69166,0.75577 1.01172,1.15625 0.28914,-0.004 0.57992,0.0129 0.86914,0.0566 0.5151,0.10942 0.6447,0.10182 1.107423,0.32226 0.68244,0.32513 1.13062,0.77697 1.41601,1.48047 0.0661,0.16299 0.0896,0.33977 0.13477,0.50977 0.0401,0.4104 0.0759,0.55415 0.0156,0.98242 -0.11221,0.79741 -0.51124,1.47934 -1.07812,2.03906 -0.0552,0.0445 -0.10961,0.0893 -0.16406,0.13477 0.0267,0.2651 0.0428,0.53237 0.0449,0.79883 0.002,0.27587 -0.0195,0.55046 -0.0293,0.82617 -0.0819,0.75629 -0.18351,1.52121 -0.43359,2.24414 -0.0901,0.26046 -0.18336,0.52231 -0.316413,0.76367 -0.40791,0.74 -0.59857,0.87895 -1.14258,1.45508 -0.55695,0.44487 -0.70918,0.60896 -1.33007,0.94141 -0.67392,0.36085 -1.41605,0.61735 -2.15625,0.80273 -0.22636,0.0567 -0.45736,0.0977 -0.68555,0.14648 -0.84088,0.14673 -1.70324,0.16432 -2.54688,0.0254 -0.49999,-0.0823 -0.61382,-0.13087 -1.08593,-0.27148 -0.95345,-0.34657 -1.76509,-0.95469 -2.55664,-1.57227 -0.46746,-0.37861 -0.9841,-0.68823 -1.50586,-0.98437 -0.45999,-0.2597 -0.90888,-0.53569 -1.3125,-0.87891 -0.29115,-0.24757 -0.44413,-0.41653 -0.70704,-0.6875 -0.12957,-0.14477 -0.25135,-0.29441 -0.37109,-0.44726 -0.0192,0.003 -0.0452,0.0112 -0.0625,0.0137 -0.98841,0.14203 -1.87493,0.0394 -2.46875,-1.22656 -0.56526,-1.20505 0.17471,-1.83946 0.76953,-2.5293 0.0395,-0.0318 0.0781,-0.0653 0.11719,-0.0977 -0.0203,-0.14503 -0.0395,-0.29144 -0.0508,-0.4375 -0.0112,-0.14481 -0.0148,-0.28851 -0.0215,-0.43359 -0.0119,-0.63438 0.0831,-1.25825 0.23829,-1.8711 0.16456,-0.63619 0.53852,-1.1638 0.98242,-1.63476 0.54385,-0.52499 1.23621,-0.82016 1.93164,-1.08399 0.49754,-0.18962 0.99646,-0.374 1.49804,-0.55273 0.44297,-0.15811 0.88549,-0.3166 1.32032,-0.4961 0.31326,-0.12502 0.63045,-0.24571 0.92578,-0.41015 0.29677,-0.1636 0.61066,-0.28953 0.93164,-0.39453 0.0374,-0.0575 0.0778,-0.11401 0.12109,-0.16797 0.0778,-0.0969 0.1693,-0.18055 0.25391,-0.27149 0.52958,-0.4434 1.03448,-0.57322 1.69922,-0.61328 z m -52.74805,9.94726 c 0.0572,0.32663 0.13108,0.66264 0.32617,0.92774 0.10728,-0.13073 0.22777,-0.24885 0.33985,-0.375 -0.18749,-0.11964 -0.33481,-0.27624 -0.66602,-0.55274 z m 51.45899,18.53907 c 1.93614,-0.0859 3.80684,1.27601 4.46484,3.38281 l 0.38281,1.22461 -1.12304,2.31445 c -1.33438,2.75097 -2.81704,4.75683 -5.22266,7.06445 -4.62605,4.4376 -9.33445,6.55614 -16.36328,7.36133 -1.87514,0.21481 -5.56968,0.27725 -5.99805,0.10156 -0.11797,-0.0484 -0.93751,-0.17405 -1.82227,-0.27929 -0.88476,-0.10525 -1.89805,-0.29117 -2.25195,-0.41211 -0.35391,-0.12094 -1.31876,-0.37442 -2.14453,-0.56446 -1.91856,-0.44152 -6.23183,-2.55302 -8.07422,-3.95312 -4.39246,-3.338 -8.10195,-8.56878 -8.28906,-11.6875 -0.065,-1.08298 0.0145,-1.49394 0.4375,-2.28516 0.81863,-1.5314 2.59059,-2.37642 4.26953,-2.22656 0.55965,0.05 1.1095,0.20962 1.60938,0.49219 1.04924,0.59312 1.61704,1.30178 1.99218,2.48437 0.96602,3.04529 4.33619,6.33972 8.4668,8.27539 2.83457,1.32831 4.19848,1.53795 9.23828,1.42579 4.75734,-0.10588 5.81204,-0.32248 8.79492,-1.81446 3.62786,-1.81459 5.4197,-3.56953 7.25586,-7.10351 1.34672,-2.59198 1.9914,-3.25985 3.54688,-3.67383 0.27593,-0.0734 0.55348,-0.11469 0.83008,-0.12695 z" />
      <circle
         style="fill:#1e7bd2;fill-opacity:1"
         id="path13"
         cx="57.442104"
         cy="-426.36475"
         r="11.582292" />
      <circle
         style="fill:#000000;fill-opacity:1;stroke-width:0.989286"
         id="path14-2"
         cx="37.368805"
         cy="-356.75342"
         r="7.0022345" />
      <circle
         style="fill:#000000;fill-opacity:1;stroke-width:0.989286"
         id="path14-2-3"
         cx="78.181374"
         cy="-357.13025"
         r="7.0022345" />
      <path
         d="m 132.23258,162.7451 h -1.536 v -6.76269 h -2.48534 v -1.376 h 6.49602 v 1.376 h -2.47468 z m 4.85334,0 h -1.536 v -8.13869 h 2.53867 l 1.68534,6.28269 1.67467,-6.28269 h 2.56001 v 8.13869 h -1.53601 v -6.98669 l -1.94133,6.98669 h -1.50401 l -1.94134,-6.94402 z"
         id="text26"
         style="font-weight:bold;font-size:10.6667px;line-height:0.93;font-family:'Open Sauce One';-inkscape-font-specification:'Open Sauce One Bold';letter-spacing:0px;display:none"
         aria-label="TM" />
      <g
         id="text1"
         style="font-weight:bold;font-size:62.8691px;line-height:0.93;font-family:'Open Sauce One';-inkscape-font-specification:'Open Sauce One Bold';letter-spacing:-3.5px;stroke-width:0.725412"
         aria-label="robot.&#10;health">
        <path
           d="m 137.74084,-349.84024 v -35.26956 h 8.48733 v 4.21222 q 1.94894,-2.70337 4.33796,-3.83501 2.4519,-1.13164 5.72109,-1.13164 h 1.00591 v 8.17298 h -1.94894 q -4.02363,0 -6.28691,2.13755 -1.44599,1.44599 -2.13755,3.70927 -0.69156,2.20042 -0.69156,5.65822 v 16.34597 z m 37.17639,0.69156 q -5.28101,0 -9.3675,-2.32616 -4.08649,-2.32615 -6.41264,-6.53838 -2.26329,-4.21223 -2.26329,-9.68184 0,-5.28101 2.26329,-9.43037 2.32615,-4.14936 6.41264,-6.41265 4.08649,-2.32615 9.3675,-2.32615 5.281,0 9.36749,2.32615 4.14937,2.32616 6.41265,6.47552 2.32616,4.08649 2.32616,9.3675 0,5.46961 -2.26329,9.68184 -2.26329,4.21223 -6.41265,6.53838 -4.08649,2.32616 -9.43036,2.32616 z m 0,-7.29282 q 4.14936,0 6.72699,-3.14345 2.57764,-3.14346 2.57764,-8.11011 0,-4.77806 -2.57764,-7.79577 -2.57763,-3.08059 -6.72699,-3.08059 -2.70337,0 -4.84092,1.38312 -2.13755,1.38312 -3.33206,3.89789 -1.19452,2.45189 -1.19452,5.59535 0,5.02952 2.57764,8.17298 2.6405,3.08058 6.78986,3.08058 z m 39.43962,7.29282 q -3.26919,0 -5.59535,-1.13164 -2.32615,-1.13165 -4.40084,-4.02363 v 4.46371 h -8.48732 v -47.96912 h 8.48732 v 17.16326 q 2.01182,-2.89198 4.33797,-4.02362 2.38903,-1.19451 5.65822,-1.19451 4.58945,0 8.11012,2.32615 3.52066,2.32616 5.46961,6.53839 1.94894,4.14936 1.94894,9.49323 0,5.34388 -1.94894,9.55611 -1.94895,4.14936 -5.46961,6.47551 -3.52067,2.32616 -8.11012,2.32616 z m -1.94894,-7.29282 q 4.02362,0 6.47552,-3.08058 2.45189,-3.14346 2.45189,-7.98438 0,-4.84092 -2.45189,-7.9215 -2.4519,-3.14346 -6.47552,-3.14346 -4.02362,0 -6.60126,3.08059 -2.51476,3.08058 -2.51476,7.98437 0,4.90379 2.51476,7.98438 2.57764,3.08058 6.60126,3.08058 z m 36.92481,7.29282 q -5.28101,0 -9.3675,-2.32616 -4.08649,-2.32615 -6.41265,-6.53838 -2.26328,-4.21223 -2.26328,-9.68184 0,-5.28101 2.26328,-9.43037 2.32616,-4.14936 6.41265,-6.41265 4.08649,-2.32615 9.3675,-2.32615 5.281,0 9.36749,2.32615 4.14936,2.32616 6.41265,6.47552 2.32616,4.08649 2.32616,9.3675 0,5.46961 -2.26329,9.68184 -2.26329,4.21223 -6.41265,6.53838 -4.08649,2.32616 -9.43036,2.32616 z m 0,-7.29282 q 4.14936,0 6.72699,-3.14345 2.57763,-3.14346 2.57763,-8.11011 0,-4.77806 -2.57763,-7.79577 -2.57763,-3.08059 -6.72699,-3.08059 -2.70337,0 -4.84092,1.38312 -2.13755,1.38312 -3.33206,3.89789 -1.19452,2.45189 -1.19452,5.59535 0,5.02952 2.57764,8.17298 2.6405,3.08058 6.78986,3.08058 z m 31.58096,6.60126 q -8.23585,0 -8.23585,-7.7329 v -20.7468 h -5.21814 v -6.78986 h 5.21814 v -12.69956 h 8.48733 v 12.69956 h 6.78986 v 6.78986 h -6.78986 v 18.16917 q 0,1.63459 0.50295,2.45189 0.56582,0.8173 2.38902,0.8173 h 3.83502 v 7.04134 z m 12.97166,0.69156 q -2.07468,0 -3.6464,-1.50886 -1.50886,-1.50886 -1.50886,-3.58354 0,-2.01181 1.50886,-3.4578 1.57172,-1.50886 3.6464,-1.50886 2.01182,0 3.45781,1.50886 1.44598,1.44599 1.44598,3.4578 0,2.13755 -1.44598,3.64641 -1.44599,1.44599 -3.45781,1.44599 z"
           id="path3" />
        <path
           d="m 137.80371,-291.37198 v -47.96912 h 8.48733 v 17.16326 q 2.07468,-2.89198 4.33796,-4.02362 2.26329,-1.19451 5.21814,-1.19451 8.29872,0 11.00209,5.90969 1.00591,2.07468 1.25738,4.21223 0.25148,2.13755 0.25148,5.59535 v 20.30672 h -8.48733 v -20.43246 q 0,-2.70337 -0.44008,-4.33796 -0.37722,-1.69747 -1.25739,-2.70337 -1.50885,-1.57173 -4.4637,-1.57173 -3.64641,0 -5.40674,2.13755 -1.06878,1.25738 -1.57173,3.33206 -0.44008,2.07468 -0.44008,5.59535 v 17.98056 z m 51.00747,0.69156 q -5.34387,0 -9.43036,-2.32615 -4.08649,-2.32616 -6.34978,-6.41265 -2.20042,-4.14936 -2.20042,-9.3675 0,-4.84092 1.94894,-9.05315 2.01182,-4.2751 5.97257,-6.9156 4.02362,-2.6405 9.80758,-2.6405 4.77805,0 8.80167,2.01181 4.02362,1.94894 6.47552,6.0983 2.45189,4.08649 2.45189,10.1848 v 1.8232 H 179.6323 q 0.1886,2.20042 1.32025,4.14936 1.25738,2.4519 3.33206,3.83502 2.13755,1.32025 4.84092,1.32025 2.89198,0 4.96666,-1.44599 2.07468,-1.50886 2.95485,-3.83502 h 8.67593 q -1.69746,5.59535 -5.97256,9.11602 -4.2751,3.4578 -10.93923,3.4578 z m 8.80168,-22.94722 q -0.25148,-2.01181 -1.32025,-3.26919 -1.19452,-1.82321 -3.14346,-2.76624 -1.94894,-1.00591 -4.33797,-1.00591 -2.38902,0 -4.33796,0.94304 -1.88608,0.94303 -3.08059,2.82911 -1.13164,1.38312 -1.38312,3.26919 z m 21.58473,22.94722 q -5.15527,0 -8.36159,-2.70337 -3.20633,-2.76624 -3.20633,-7.67003 0,-5.281 4.02363,-8.04724 2.89198,-2.01182 8.23585,-3.01772 l 10.49914,-1.94894 q -0.12574,-3.2692 -1.69747,-4.96666 -1.57172,-1.69747 -4.71518,-1.69747 -2.45189,0 -4.33797,1.44599 -1.8232,1.44599 -2.26328,3.89789 h -8.42446 q 0.88016,-5.84683 5.15526,-8.92742 4.2751,-3.08058 9.93332,-3.08058 3.20632,0 5.97256,0.94303 2.76624,0.88017 4.71519,2.64051 1.94894,1.69746 2.82911,3.96075 0.88016,2.26329 1.06877,4.52658 0.25148,2.26328 0.25148,5.59534 v 18.35778 h -8.48733 v -4.77805 q -1.32025,2.32616 -3.20633,3.52067 -2.95484,1.94894 -7.98437,1.94894 z m 2.07468,-6.66412 q 2.51476,0 4.52657,-1.00591 2.64051,-1.32025 3.64641,-3.52067 1.00591,-2.20042 1.13165,-5.97256 l -8.42446,1.69746 q -3.39493,0.62869 -4.90379,2.01181 -1.13165,1.13165 -1.13165,2.76625 0,1.94894 1.38312,3.01771 1.44599,1.00591 3.77215,1.00591 z m 29.44338,5.97256 q -4.02362,0 -6.0983,-1.8232 -2.07468,-1.88608 -2.07468,-5.9097 v -40.23622 h 8.48732 v 37.72146 q 0,1.76033 0.6287,2.51476 0.69156,0.69156 2.26328,0.69156 h 2.26329 v 7.04134 z m 17.30974,0 q -8.23585,0 -8.23585,-7.7329 v -20.7468 h -5.21814 v -6.78986 h 5.21814 v -12.69956 h 8.48732 v 12.69956 h 6.78987 v 6.78986 h -6.78987 v 18.16917 q 0,1.6346 0.50296,2.45189 0.56582,0.8173 2.38902,0.8173 h 3.83502 v 7.04134 z m 9.57673,0 v -47.96912 h 8.48733 v 17.16326 q 2.07468,-2.89198 4.33797,-4.02362 2.26329,-1.19451 5.21813,-1.19451 8.29873,0 11.0021,5.90969 1.0059,2.07468 1.25738,4.21223 0.25147,2.13755 0.25147,5.59535 v 20.30672 h -8.48732 v -20.43246 q 0,-2.70337 -0.44009,-4.33796 -0.37721,-1.69747 -1.25738,-2.70337 -1.50886,-1.57173 -4.46371,-1.57173 -3.6464,0 -5.40674,2.13755 -1.06877,1.25738 -1.57172,3.33206 -0.44009,2.07468 -0.44009,5.59535 v 17.98056 z"
           id="path4" />
      </g>
      <path
         d="m 314.82449,-291.62482 h -1.63199 v -7.18531 h -2.64066 v -1.46199 h 6.90198 v 1.46199 h -2.62933 z m 5.15665,0 h -1.632 v -8.6473 h 2.69733 l 1.79066,6.67531 1.77933,-6.67531 h 2.71999 v 8.6473 h -1.632 v -7.42331 l -2.06266,7.42331 h -1.59799 l -2.06266,-7.37797 z"
         id="text3"
         style="font-weight:bold;font-size:11.3333px;line-height:0.93;font-family:'Open Sauce One';-inkscape-font-specification:'Open Sauce One Bold';letter-spacing:0px"
         aria-label="TM" />
      <text
         xml:space="preserve"
         transform="translate(-11.335698,-444.85063)"
         id="text4"
         style="fill:#000000;text-orientation:auto;font-size:11.33333333px;-inkscape-font-specification:'Open Sauce One Bold';font-family:'Open Sauce One';font-weight:bold;line-height:0.93;letter-spacing:-3.5px;text-align:start;writing-mode:lr-tb;direction:ltr;white-space:pre;shape-inside:url(#rect4)" />
    </g>
  </g>
</svg>
