<?xml version="1.0" encoding="UTF-8" standalone="no"?>
<!-- Created with Inkscape (http://www.inkscape.org/) -->

<svg
   version="1.1"
   id="svg1"
   width="157.09091"
   height="173.09091"
   viewBox="0 0 157.09091 173.09091"
   sodipodi:docname="original image logo only.svg"
   inkscape:version="1.4 (86a8ad7, 2024-10-11)"
   xmlns:inkscape="http://www.inkscape.org/namespaces/inkscape"
   xmlns:sodipodi="http://sodipodi.sourceforge.net/DTD/sodipodi-0.dtd"
   xmlns="http://www.w3.org/2000/svg"
   xmlns:svg="http://www.w3.org/2000/svg">
  <defs
     id="defs1" />
  <sodipodi:namedview
     id="namedview1"
     pagecolor="#ffffff"
     bordercolor="#000000"
     borderopacity="0.25"
     inkscape:showpageshadow="2"
     inkscape:pageopacity="0.0"
     inkscape:pagecheckerboard="0"
     inkscape:deskcolor="#d1d1d1"
     showguides="true"
     inkscape:zoom="3.06"
     inkscape:cx="57.026144"
     inkscape:cy="98.529412"
     inkscape:window-width="1920"
     inkscape:window-height="1009"
     inkscape:window-x="1912"
     inkscape:window-y="-8"
     inkscape:window-maximized="1"
     inkscape:current-layer="g1">
    <sodipodi:guide
       position="31.698011,88.006775"
       orientation="0,-1"
       id="guide22"
       inkscape:locked="false" />
    <sodipodi:guide
       position="23.887257,73.97775"
       orientation="0,-1"
       id="guide23"
       inkscape:locked="false" />
    <sodipodi:guide
       position="41.859575,140.63457"
       orientation="1,0"
       id="guide24"
       inkscape:locked="false" />
    <sodipodi:guide
       position="93.122387,138.81459"
       orientation="1,0"
       id="guide25"
       inkscape:locked="false" />
    <sodipodi:guide
       position="-160.45751,9.692219"
       orientation="0,-1"
       id="guide26"
       inkscape:locked="false" />
  </sodipodi:namedview>
  <g
     inkscape:groupmode="layer"
     inkscape:label="Image"
     id="g1">
    <g
       id="g4"
       transform="translate(-7.4310902,3.3366327)">
      <path
         style="fill:#1e7bd2"
         d="m 49.163637,160.10795 c -2.096869,-0.21443 -5.665719,-1.07972 -7.795506,-1.89006 -0.367529,-0.13984 -0.868749,-0.25425 -1.113822,-0.25425 -0.611369,0 -7.67249,-3.52254 -7.67249,-3.82753 0,-0.13486 -0.16368,-0.2452 -0.363734,-0.2452 -0.635319,0 -5.230713,-3.65072 -7.383438,-5.86563 -3.840076,-3.951 -6.534177,-8.11752 -8.528053,-13.18891 -0.125812,-0.32 -0.370595,-0.9091 -0.543963,-1.3091 -0.173368,-0.4 -0.526549,-1.57818 -0.784846,-2.61818 -0.258298,-1.04 -0.586168,-2.34909 -0.7286,-2.90909 -0.623334,-2.45076 -0.691715,-5.18419 -0.687724,-27.49091 0.0039,-22.069849 0.09746,-25.88341 0.670548,-27.345452 0.125433,-0.32 0.441218,-1.46998 0.701745,-2.555512 0.639234,-2.66348 2.943153,-7.405341 4.97747,-10.244489 2.798603,-3.905804 7.099984,-7.964526 10.488777,-9.897059 2.378883,-1.35661 5.210266,-2.747352 5.603947,-2.752593 0.202171,-0.0027 0.594898,-0.120529 0.872727,-0.261862 3.543403,-1.802541 6.572289,-2.13187 20.868781,-2.269048 l 12.509091,-0.120028 -0.072,-7.452008 c -0.0396,-4.098605 -0.105055,-7.46869 -0.145455,-7.489078 -3.943812,-1.990299 -6.618909,-6.228156 -6.618909,-10.485597 0,-4.197704 2.491855,-8.141069 6.545455,-10.3581952 1.653477,-0.9043737 1.907769,-0.955539 4.825722,-0.9709701 2.863001,-0.015141 3.201569,0.045268 4.8,0.8564378 2.256969,1.1453635 4.742052,3.6334805 5.811087,5.8181815 0.779809,1.593633 0.8541,2.011143 0.8541,4.8 0,2.801847 -0.07151,3.198945 -0.864401,4.800001 -0.89399,1.805201 -3.22436,4.332874 -4.694598,5.092071 -0.46255,0.238851 -0.937178,0.565392 -1.054728,0.725647 -0.11755,0.160255 -0.215732,3.524862 -0.218182,7.476904 l -0.0045,7.185532 12.436364,0.123386 c 13.346878,0.13242 16.970628,0.447058 19.341508,1.679359 0.27783,0.144405 0.76102,0.262555 1.07375,0.262555 0.31272,0 0.64054,0.116408 0.72847,0.258683 0.0879,0.142275 0.49187,0.342008 0.89764,0.44385 1.65646,0.415746 6.28611,2.897734 8.18563,4.388377 2.70927,2.126086 6.05251,5.382691 7.01826,6.836363 0.26572,0.4 0.83283,1.185455 1.26022,1.745455 1.09964,1.440863 3.29103,5.731881 3.87722,7.592091 0.27236,0.86435 0.60185,1.833364 0.73219,2.153364 1.36572,3.353036 1.46726,5.447141 1.46111,30.132924 -0.006,25.95729 0.0233,25.45801 -1.88548,31.68526 -0.26973,0.88 -0.68867,2.05818 -0.93099,2.61818 -0.80004,1.84894 -2.52764,5.37921 -2.70487,5.52727 -0.0958,0.08 -0.81335,1.12728 -1.59466,2.32728 -1.34573,2.06687 -5.96698,6.92287 -8.48699,8.91807 -3.64914,2.88919 -9.49197,5.86907 -13.33664,6.80178 -0.64,0.15526 -2.08,0.5667 -3.20001,0.9143 -2.0202,0.627 -2.24299,0.63245 -28.072722,0.68678 -14.32,0.0301 -26.494546,0.008 -27.054546,-0.0494 z m 54.109093,-12.09577 c 1.80092,-0.51587 2.5029,-0.7508 3.34545,-1.11963 0.32,-0.14008 1.33034,-0.57732 2.2452,-0.97165 3.91311,-1.68668 8.68543,-5.58783 11.15192,-9.11617 1.761,-2.51912 3.74958,-6.71542 4.33362,-9.14477 0.97783,-4.06734 1.06088,-6.61669 0.95093,-29.190116 -0.11366,-23.335084 -0.0834,-22.715018 -1.28619,-26.324388 -0.42449,-1.273785 -2.33473,-4.76359 -3.18474,-5.818182 -2.00122,-2.482889 -4.92914,-5.082163 -7.29412,-6.475393 -2.4771,-1.459281 -3.82237,-1.955895 -8.51662,-3.143948 -0.56,-0.141728 -14.126782,-0.260811 -30.148409,-0.264628 -31.466204,-0.0075 -29.036103,-0.114438 -34.142498,1.502509 -5.895133,1.866704 -11.397946,6.814784 -14.173957,12.745096 -2.086353,4.457017 -1.971497,2.719861 -1.971497,29.81818 0,26.19707 -0.0019,26.15864 1.489009,29.4625 0.381045,0.84437 0.692809,1.59853 0.692809,1.6759 0,0.51596 1.547916,3.26917 2.957932,5.26115 1.898229,2.68168 4.959342,5.54056 7.951159,7.42585 1.798831,1.13353 2.821677,1.63626 5.309091,2.60943 0.36,0.14084 0.949091,0.37329 1.309091,0.51653 0.36,0.14325 1.374545,0.40351 2.254545,0.57835 0.88,0.17484 1.861819,0.37205 2.181819,0.43825 0.32,0.0662 12.363636,0.0918 26.763636,0.0569 22.830038,-0.0553 26.38665,-0.12213 27.78182,-0.52178 z"
         id="path6" />
      <path
         id="path5"
         style="fill:#141819"
         d="m 54.034606,109.67313 c -2.254442,0 -3.870471,1.30723 -4.400391,3.5586 -0.626386,2.6612 3.554051,8.9584 8.31836,12.52734 2.632442,1.97197 7.788718,4.27734 9.566406,4.27734 0.445509,0 0.891354,0.13102 0.990234,0.29102 0.09889,0.16 0.794365,0.30532 1.544922,0.32422 0.750558,0.0189 1.756328,0.14319 2.236328,0.27539 0.48,0.13217 1.985703,0.18082 3.345703,0.10742 8.979377,-0.48473 14.80497,-3.06522 20.22461,-8.95508 1.196518,-1.30033 2.507349,-3.02013 2.914062,-3.82226 0.406713,-0.80212 0.845945,-1.65453 0.97461,-1.89453 1.08156,-2.01745 1.1224,-2.34576 0.47461,-3.81836 -0.594037,-1.35042 -1.016192,-1.83081 -2.09961,-2.39063 -2.13884,-1.10518 -4.641121,-0.23184 -5.710938,1.99414 -1.55475,3.23499 -2.084676,4.11177 -3.0625,5.06641 -2.341223,2.28571 -5.480983,4.04961 -8.623047,4.8457 -2.687093,0.68097 -9.118484,0.68833 -11.636719,0.0117 -5.24577,-1.40904 -10.397528,-5.74639 -11.296875,-9.50977 -0.365426,-1.52915 -2.136148,-2.88867 -3.759765,-2.88867 z" />
    </g>
    <path
       id="path11"
       style="fill:#ffffff;stroke-width:0.214487"
       transform="translate(-167.4383,3.3366327)"
       d="m 217.46564,56.645789 c -13.23422,0.03907 -13.2182,0.264055 -16.27539,1.285156 -6.2936,2.102066 -11.35499,6.54086 -14.43554,12.658204 -1.32026,2.621769 -1.64428,3.891295 -1.86719,7.332031 -0.26507,4.089446 -0.26627,40.4401 -0.002,45.20508 0.21701,3.90837 0.39854,4.7237 1.7832,7.97461 3.14095,7.37435 8.63486,12.653 16.36719,15.72461 2.45811,0.97647 4.17743,1.33247 7.26953,1.50586 3.72596,0.20894 48.83568,0.006 51.15429,-0.23047 2.33175,-0.23743 4.59915,-0.98388 7.82813,-2.57617 2.99726,-1.47802 5.26076,-3.11391 7.89062,-5.70704 2.19899,-2.16827 3.81393,-4.50045 5.29883,-7.64843 1.28783,-2.73021 2.01289,-5.14583 2.39649,-7.99219 0.36172,-2.68041 0.35968,-43.603986 -0.002,-47.398438 -0.55304,-5.805962 -3.90118,-11.278751 -9.45703,-15.455078 -2.38743,-1.794626 -4.64167,-2.891604 -7.94922,-3.867188 l -2.67968,-0.789062 -29.06446,-0.02148 c -7.96031,-0.0058 -13.84445,-0.01302 -18.25586,0 z m -4.2207,21.330078 c 0.90817,-0.0079 1.45024,0.544092 1.47852,1.320313 0.53878,0.136567 0.94276,0.573957 1.31445,1.484375 1.50928,-0.409161 2.50439,0.215031 2.70898,1.103515 0.0397,1.12e-4 0.0794,-2.49e-4 0.11914,0 0.6299,0.004 1.25808,0.02748 1.88477,0.0918 0.21533,0.0221 0.41306,0.05832 0.60156,0.101563 0.0438,-0.0044 0.087,-0.01367 0.13086,-0.01758 0.0784,-0.007 0.15573,-0.0071 0.23438,-0.0098 0.11722,-0.0041 0.23196,-0.0046 0.34179,-0.002 2.62785,0.06278 3.13249,1.989559 1.57422,3.095703 0.0657,0.05363 0.12899,0.10329 0.19922,0.166016 0.6259,0.559013 1.04859,1.291998 1.26172,2.097656 0.0619,0.233909 0.0914,0.475224 0.13672,0.712891 0.0309,0.611315 0.0646,0.790078 -0.0137,1.412109 -0.13634,1.083244 -0.55883,2.100414 -1.08008,3.050781 -0.47666,0.736937 -0.57905,0.961061 -1.1836,1.623047 -1.04191,1.140982 -2.32228,2.00521 -3.70703,2.669922 -0.41428,0.457059 -1.14425,0.775754 -2.16601,0.783203 -0.30878,0.08801 -0.64015,0.171733 -1.09961,0.265625 -1.05598,0.21578 -2.12409,0.336078 -3.20313,0.330078 -1.03946,-0.0061 -1.88869,-0.159777 -2.91211,-0.304687 -0.46308,-0.09171 -0.92813,-0.171641 -1.38867,-0.275391 -1.7988,-0.40521 -3.62204,-0.987228 -5.15039,-2.052734 -0.2835,-0.197646 -0.51937,-0.455828 -0.7793,-0.683594 -0.26758,-0.303802 -0.56393,-0.585194 -0.80273,-0.912109 -0.55597,-0.76111 -0.90196,-1.93087 -0.97266,-2.867188 -0.019,-0.251075 -0.0105,-0.502168 -0.0156,-0.753906 0.0556,-0.515261 0.06,-0.704728 0.18555,-1.22461 0.18958,-0.785115 0.54848,-1.515924 1,-2.18164 0.13781,-0.17437 0.26786,-0.356043 0.41406,-0.523438 0.58174,-0.666067 1.28452,-1.211043 2.0332,-1.679687 -1.41357,-1.47686 -0.0198,-0.924077 0.43164,-0.251953 0.11732,-0.06783 0.23309,-0.140355 0.35156,-0.205078 0.19812,-0.101344 0.32693,-0.167591 0.47266,-0.242188 0.17196,-0.211436 0.34221,-0.42427 0.51758,-0.632812 0.51349,-0.610623 0.80987,-0.947217 1.36133,-1.533204 0.25272,-0.268546 0.51131,-0.531711 0.76758,-0.796875 0.65405,-0.617027 1.30867,-1.228956 2.00976,-1.792968 0.27739,-0.223157 0.5188,-0.409012 0.81445,-0.597657 0.0938,-0.05987 0.19298,-0.111788 0.28907,-0.167968 0.7088,-0.414458 1.33105,-0.595179 1.83984,-0.59961 z m 44.08594,3.125 c 0.41389,-0.0183 0.81756,0.07973 1.21094,0.195313 0.2307,0.06716 0.45096,0.164907 0.67578,0.248047 0.18009,0.07419 0.36913,0.115058 0.55468,0.173828 0.18785,0.07797 0.36362,0.173884 0.53321,0.277344 0.95071,0.221025 1.49884,0.788431 1.61328,1.417968 0.0161,0.01711 0.0328,0.03366 0.0488,0.05078 0.3573,0.369177 0.69166,0.755773 1.01172,1.15625 0.28914,-0.0038 0.57992,0.01294 0.86914,0.05664 0.5151,0.109421 0.6447,0.10182 1.10742,0.322266 0.68244,0.325121 1.13062,0.776961 1.41601,1.480469 0.0661,0.162983 0.0896,0.33977 0.13477,0.509765 0.0401,0.410397 0.0759,0.554154 0.0156,0.982422 -0.11221,0.797411 -0.51124,1.479338 -1.07812,2.039063 -0.0552,0.04448 -0.10961,0.08932 -0.16406,0.134765 0.0267,0.265104 0.0428,0.53237 0.0449,0.798828 0.002,0.275874 -0.0195,0.550462 -0.0293,0.826172 -0.0819,0.756289 -0.18351,1.521209 -0.43359,2.244141 -0.0901,0.260461 -0.18336,0.522309 -0.31641,0.763672 -0.40791,0.739996 -0.59857,0.878952 -1.14258,1.455078 -0.55695,0.444868 -0.70918,0.608956 -1.33007,0.941406 -0.67392,0.36085 -1.41605,0.617354 -2.15625,0.802734 -0.22636,0.05667 -0.45736,0.09769 -0.68555,0.146485 -0.84088,0.14673 -1.70324,0.16432 -2.54688,0.02539 -0.49999,-0.08233 -0.61382,-0.130874 -1.08593,-0.271484 -0.95345,-0.34657 -1.76509,-0.954694 -2.55664,-1.572266 -0.46746,-0.37861 -0.9841,-0.688232 -1.50586,-0.984375 -0.45999,-0.259695 -0.90888,-0.535689 -1.3125,-0.878906 -0.29115,-0.247571 -0.44413,-0.416538 -0.70704,-0.6875 -0.12957,-0.144771 -0.25135,-0.29441 -0.37109,-0.447265 -0.0192,0.0035 -0.0452,0.01118 -0.0625,0.01367 -0.98841,0.142027 -1.87493,0.03935 -2.46875,-1.226562 -0.56526,-1.205049 0.17471,-1.839456 0.76953,-2.529297 0.0395,-0.03176 0.0781,-0.06534 0.11719,-0.09766 -0.0203,-0.145032 -0.0395,-0.29144 -0.0508,-0.4375 -0.0112,-0.14481 -0.0148,-0.288507 -0.0215,-0.433594 -0.0119,-0.634373 0.0831,-1.258241 0.23829,-1.871094 0.16456,-0.636192 0.53852,-1.163805 0.98242,-1.634765 0.54385,-0.524982 1.23621,-0.820156 1.93164,-1.083985 0.49754,-0.189622 0.99646,-0.373998 1.49804,-0.552734 0.44297,-0.158105 0.88549,-0.316593 1.32032,-0.496094 0.31326,-0.125021 0.63045,-0.245713 0.92578,-0.410156 0.29677,-0.1636 0.61066,-0.289528 0.93164,-0.394531 0.0374,-0.05748 0.0778,-0.114011 0.12109,-0.167969 0.0778,-0.09686 0.1693,-0.180544 0.25391,-0.271484 0.52958,-0.443399 1.03448,-0.573222 1.69922,-0.613282 z m -52.74805,9.947266 c 0.0572,0.32663 0.13108,0.662633 0.32617,0.927734 0.10728,-0.130731 0.22777,-0.248851 0.33985,-0.375 -0.18749,-0.119641 -0.33481,-0.27624 -0.66602,-0.552734 z m 51.45899,18.539067 c 1.93614,-0.0859 3.80684,1.27601 4.46484,3.38281 l 0.38281,1.22461 -1.12304,2.31445 c -1.33438,2.75097 -2.81704,4.75683 -5.22266,7.06445 -4.62605,4.4376 -9.33445,6.55614 -16.36328,7.36133 -1.87514,0.21481 -5.56968,0.27725 -5.99805,0.10156 -0.11797,-0.0484 -0.93751,-0.17405 -1.82227,-0.27929 -0.88476,-0.10525 -1.89805,-0.29117 -2.25195,-0.41211 -0.35391,-0.12094 -1.31876,-0.37442 -2.14453,-0.56446 -1.91856,-0.44152 -6.23183,-2.55302 -8.07422,-3.95312 -4.39246,-3.338 -8.10195,-8.56878 -8.28906,-11.6875 -0.065,-1.08298 0.0145,-1.49394 0.4375,-2.28516 0.81863,-1.5314 2.59059,-2.37642 4.26953,-2.22656 0.55965,0.05 1.1095,0.20962 1.60938,0.49219 1.04924,0.59312 1.61704,1.30178 1.99218,2.48437 0.96602,3.04529 4.33619,6.33972 8.4668,8.27539 2.83457,1.32831 4.19848,1.53795 9.23828,1.42579 4.75734,-0.10588 5.81204,-0.32248 8.79492,-1.81446 3.62786,-1.81459 5.4197,-3.56953 7.25586,-7.10351 1.34672,-2.59198 1.9914,-3.25985 3.54688,-3.67383 0.27593,-0.0734 0.55348,-0.11469 0.83008,-0.12695 z" />
    <circle
       style="fill:#1e7bd2;fill-opacity:1"
       id="path13"
       cx="67.56337"
       cy="22.521122"
       r="11.582292" />
    <circle
       style="fill:#000000;fill-opacity:1;stroke-width:0.989286"
       id="path14-2"
       cx="47.490074"
       cy="92.132431"
       r="7.0022345" />
    <circle
       style="fill:#000000;fill-opacity:1;stroke-width:0.989286"
       id="path14-2-3"
       cx="88.302635"
       cy="91.755608"
       r="7.0022345" />
    <path
       d="m 132.23258,162.7451 h -1.536 v -6.76269 h -2.48534 v -1.376 h 6.49602 v 1.376 h -2.47468 z m 4.85334,0 h -1.536 v -8.13869 h 2.53867 l 1.68534,6.28269 1.67467,-6.28269 h 2.56001 v 8.13869 h -1.53601 v -6.98669 l -1.94133,6.98669 h -1.50401 l -1.94134,-6.94402 z"
       id="text26"
       style="font-weight:bold;font-size:10.6667px;line-height:0.93;font-family:'Open Sauce One';-inkscape-font-specification:'Open Sauce One Bold';letter-spacing:0px"
       aria-label="TM" />
  </g>
</svg>
